<svg width="210" height="210" viewBox="0 0 210 210" fill="none" xmlns="http://www.w3.org/2000/svg">
<g filter="url(#filter0_d_103_255)">
<circle cx="95" cy="95" r="35" fill="url(#paint0_linear_103_255)" shape-rendering="crispEdges"/>
</g>
<path d="M92.4525 113.032C90.5787 114.906 87.5405 114.906 85.6666 113.032C83.7927 111.158 83.7927 108.12 85.6666 106.246L100.037 91.8761C101.911 90.0023 104.949 90.0023 106.823 91.8761C108.697 93.75 108.697 96.7882 106.823 98.6621L92.4525 113.032Z" fill="url(#paint1_linear_103_255)"/>
<path d="M85.6666 84.2919C83.7927 82.418 83.7927 79.3798 85.6666 77.5059C87.5405 75.632 90.5787 75.632 92.4525 77.5059L106.823 91.8761C108.697 93.75 108.697 96.7882 106.823 98.6621C104.949 100.536 101.911 100.536 100.037 98.6621L85.6666 84.2919Z" fill="url(#paint2_linear_103_255)"/>
<defs>
<filter id="filter0_d_103_255" x="0" y="0" width="210" height="210" filterUnits="userSpaceOnUse" color-interpolation-filters="sRGB">
<feFlood flood-opacity="0" result="BackgroundImageFix"/>
<feColorMatrix in="SourceAlpha" type="matrix" values="0 0 0 0 0 0 0 0 0 0 0 0 0 0 0 0 0 0 127 0" result="hardAlpha"/>
<feOffset dx="10" dy="10"/>
<feGaussianBlur stdDeviation="35"/>
<feComposite in2="hardAlpha" operator="out"/>
<feColorMatrix type="matrix" values="0 0 0 0 0.231373 0 0 0 0 0.25098 0 0 0 0 0.337255 0 0 0 0.1 0"/>
<feBlend mode="normal" in2="BackgroundImageFix" result="effect1_dropShadow_103_255"/>
<feBlend mode="normal" in="SourceGraphic" in2="effect1_dropShadow_103_255" result="shape"/>
</filter>
<linearGradient id="paint0_linear_103_255" x1="71.0081" y1="69.5968" x2="130" y2="135.081" gradientUnits="userSpaceOnUse">
<stop stop-color="#E7E7E7"/>
<stop offset="0.911608" stop-color="#F8FBFF" stop-opacity="0"/>
</linearGradient>
<linearGradient id="paint1_linear_103_255" x1="102.339" y1="113.629" x2="115.323" y2="84.5565" gradientUnits="userSpaceOnUse">
<stop stop-color="#00DB65"/>
<stop offset="1" stop-color="#007A38"/>
</linearGradient>
<linearGradient id="paint2_linear_103_255" x1="102.339" y1="113.629" x2="115.323" y2="84.5565" gradientUnits="userSpaceOnUse">
<stop stop-color="#00DB65"/>
<stop offset="1" stop-color="#007A38"/>
</linearGradient>
</defs>
</svg>
