<svg width="195" height="51" viewBox="0 0 195 51" fill="none" xmlns="http://www.w3.org/2000/svg">
<rect x="2.98535" y="17" width="41" height="17" fill="white"/>
<path d="M0 25.5V51H22.9997H45.9995V25.5V0H22.9997H0V25.5ZM22.898 19.2376C24.315 19.3678 25.3833 19.75 26.248 20.4391C26.4326 20.5853 26.7742 20.9197 26.921 21.0963C27.8511 22.2153 28.3118 23.7701 28.3118 25.7895C28.3118 27.7409 27.8845 29.2436 27.0096 30.3713C26.8381 30.5928 26.4036 31.0242 26.1783 31.1964C25.4327 31.7682 24.5331 32.1287 23.4503 32.2894C22.9503 32.3647 22.7556 32.3762 22.055 32.3762C21.481 32.3748 21.3647 32.3719 21.1074 32.3429C19.5305 32.1721 18.3664 31.6568 17.4624 30.7317C17.0917 30.351 16.8229 29.9761 16.5758 29.4868C16.1703 28.6862 15.9538 27.8611 15.8462 26.7088C15.8142 26.3657 15.8099 25.2843 15.8389 24.9354C15.9785 23.2388 16.4479 21.9852 17.3039 21.0196C18.2806 19.9194 19.6715 19.3273 21.5391 19.2187C21.7237 19.2086 22.7265 19.2231 22.898 19.2376ZM9.51964 19.4257C10.755 19.514 11.5486 19.6892 12.2302 20.0207C13.1386 20.4608 13.6225 21.1122 13.7737 22.0908C13.8042 22.2949 13.8086 22.8407 13.7809 23.039C13.7112 23.5399 13.5629 23.9568 13.3304 24.3129C12.9816 24.8471 12.4903 25.2163 11.9046 25.3827C11.8014 25.4117 11.7942 25.416 11.7942 25.4551C11.7942 25.4942 11.8 25.4971 11.9599 25.5449C12.5528 25.7244 12.9874 25.9734 13.3348 26.3338C13.6981 26.7117 13.9176 27.1981 14.0208 27.8524C14.0542 28.0652 14.0585 28.7977 14.028 29.0033C13.9059 29.8125 13.5978 30.4219 13.0426 30.9489C12.3479 31.6104 11.3494 32.0245 10.1228 32.1591C9.69986 32.2054 9.40482 32.2098 6.79164 32.2098H4.15667V25.8141C4.15667 22.2964 4.16103 19.4127 4.16684 19.4069C4.18573 19.3896 9.26094 19.4069 9.51964 19.4257ZM34.1733 21.3699C34.8099 22.4556 35.3346 23.3416 35.3418 23.3387C35.3477 23.3358 35.8534 22.4484 36.4639 21.3656L37.5742 19.3982H39.5479C40.8516 19.3982 41.5231 19.4026 41.5231 19.4127C41.5231 19.42 40.6103 20.8907 39.4956 22.6786L37.4681 25.9299L39.593 28.9787C40.76 30.6565 41.7454 32.0693 41.7803 32.1186L41.8457 32.2098H39.8342H37.8242L36.5743 30.212C35.8869 29.1133 35.32 28.2201 35.3142 28.2259C35.3084 28.2317 34.7518 29.1278 34.0759 30.2193L32.8478 32.2025L30.8858 32.2069C29.8059 32.2083 28.9223 32.2069 28.9223 32.2025C28.9223 32.1982 29.8757 30.7317 31.0398 28.9425C32.204 27.1517 33.1574 25.6752 33.1574 25.6592C33.1574 25.6433 32.2636 24.2348 31.1706 22.5295C30.0777 20.8242 29.1839 19.4214 29.1839 19.4142C29.1839 19.4026 29.758 19.3982 31.1009 19.3982H33.0179L34.1733 21.3699Z" fill="#FF0000"/>
<path d="M21.7135 22.0629C21.5565 22.0803 21.3356 22.1295 21.183 22.1802C20.6496 22.3583 20.2151 22.7477 19.9389 23.2934C19.7136 23.7422 19.5828 24.2387 19.5102 24.9278C19.4796 25.2231 19.4666 26.0135 19.4884 26.3465C19.5639 27.506 19.8401 28.3124 20.3371 28.8321C20.6772 29.1853 21.0871 29.3879 21.6234 29.469C21.8385 29.5009 22.3065 29.4994 22.5201 29.4676C23.3384 29.3431 23.8747 28.9537 24.2264 28.2284C24.4269 27.8144 24.5505 27.3091 24.6232 26.607C24.6537 26.3146 24.6479 25.2014 24.6159 24.8916C24.4705 23.5308 24.0389 22.7028 23.2701 22.309C23.0128 22.1773 22.7904 22.1107 22.4722 22.0687C22.2948 22.0456 21.8966 22.0427 21.7135 22.0629Z" fill="#FF0000"/>
<path d="M7.62988 23.1767V24.3232L8.31007 24.316C9.00769 24.3102 9.0978 24.303 9.33325 24.2407C9.73874 24.1351 10.0323 23.902 10.1559 23.5878C10.2343 23.3895 10.2605 23.0421 10.2111 22.8365C10.1268 22.4833 9.86373 22.2416 9.43062 22.1214C9.16465 22.0476 9.11815 22.0447 8.35367 22.0374L7.62988 22.0302V23.1767Z" fill="#FF0000"/>
<path d="M7.62988 28.1927V29.5332L8.4336 29.5274C9.28238 29.5202 9.29836 29.5187 9.57451 29.4449C9.7242 29.4044 9.9582 29.2871 10.0585 29.2031C10.2954 28.999 10.4204 28.75 10.4654 28.3881C10.496 28.1406 10.4625 27.838 10.3855 27.6469C10.246 27.3039 9.94221 27.0534 9.52945 26.9405C9.25912 26.8667 9.23732 26.8652 8.4118 26.858L7.62988 26.8522V28.1927Z" fill="#FF0000"/>
<path d="M128.559 20.051C126.997 20.161 125.735 20.8877 124.961 22.1211C124.824 22.3397 124.604 22.787 124.511 23.036C124.136 24.0465 124.017 25.2929 124.179 26.5205C124.394 28.1548 125.135 29.4534 126.289 30.2134C126.889 30.61 127.565 30.8431 128.385 30.9386C128.633 30.9676 129.408 30.9632 129.671 30.9314C130.203 30.8662 130.635 30.7606 131.02 30.5999C132.241 30.0947 133.031 29.1247 133.339 27.7509C133.445 27.2732 133.466 27.0416 133.474 26.1614L133.482 25.4058H131.322H129.162V25.9848V26.5639H130.662H132.161L132.152 26.8172C132.14 27.1169 132.113 27.321 132.054 27.5613C131.932 28.0578 131.703 28.4733 131.351 28.8352C130.876 29.3231 130.27 29.6082 129.475 29.7226C129.271 29.7516 128.643 29.7472 128.436 29.7154C128.12 29.6662 127.856 29.5938 127.593 29.4852C126.751 29.1334 126.112 28.4067 125.771 27.4107C125.583 26.8578 125.492 26.3077 125.475 25.6085C125.46 24.9802 125.511 24.4677 125.639 23.948C125.953 22.6654 126.694 21.7954 127.782 21.4349C127.972 21.3712 128.215 21.3177 128.45 21.2858C128.703 21.2511 129.236 21.2511 129.475 21.2844C130.651 21.4552 131.489 22.1226 131.93 23.2387C131.967 23.3328 132.001 23.4283 132.007 23.4529L132.015 23.4949H132.71C133.272 23.4949 133.406 23.4906 133.406 23.4761C133.406 23.4283 133.3 23.0346 133.239 22.8594C132.756 21.4595 131.605 20.4708 130.085 20.1523C129.597 20.0496 129.077 20.0148 128.559 20.051Z" fill="white"/>
<path d="M151.616 20.0456C151.221 20.0717 150.892 20.1209 150.586 20.1962C148.721 20.6609 147.468 22.1462 147.147 24.2771C147.074 24.7519 147.045 25.5278 147.08 26.0171C147.276 28.7517 148.754 30.5525 151.093 30.9058C151.67 30.9926 152.405 30.981 152.997 30.8782C154.828 30.5554 156.03 29.3467 156.34 27.5125C156.411 27.0912 156.415 27.0102 156.423 26.1908L156.43 25.4062H154.27H152.11V25.9853V26.5643H153.607H155.104V26.7554C155.103 27.5921 154.815 28.329 154.283 28.8588C153.821 29.3191 153.229 29.6 152.478 29.7158C152.246 29.752 151.613 29.7505 151.376 29.7144C150.807 29.6275 150.301 29.4205 149.879 29.0991C149.762 29.0108 149.497 28.7531 149.385 28.6185C148.653 27.747 148.307 26.311 148.455 24.762C148.587 23.3853 149.131 22.3532 150.032 21.7683C150.878 21.2211 152.15 21.0952 153.138 21.4629C153.968 21.7712 154.588 22.4212 154.915 23.3245L154.978 23.4953H155.668H156.359L156.348 23.4331C156.314 23.2116 156.171 22.7686 156.048 22.495C155.567 21.4339 154.667 20.6479 153.507 20.2758C152.94 20.0949 152.206 20.0051 151.616 20.0456Z" fill="white"/>
<path d="M181.055 20.0437C180.639 20.0756 180.388 20.1132 180.084 20.1899C178.932 20.4766 178.015 21.1569 177.395 22.1833C176.955 22.9144 176.695 23.7728 176.597 24.8194C176.57 25.1206 176.574 25.9573 176.605 26.2685C176.752 27.7292 177.241 28.8786 178.063 29.6965C178.772 30.403 179.651 30.8068 180.764 30.9386C180.981 30.9632 181.754 30.9632 181.992 30.9386C182.494 30.885 182.963 30.7735 183.366 30.6143C183.543 30.5448 183.864 30.3827 184.013 30.29C184.703 29.8557 185.222 29.2231 185.539 28.4313C185.627 28.2069 185.757 27.7943 185.757 27.7321C185.757 27.7089 185.709 27.7075 185.093 27.7104L184.427 27.7147L184.375 27.8638C184.126 28.5659 183.648 29.0972 182.976 29.4157C182.673 29.5604 182.338 29.6574 181.942 29.7153C181.692 29.7515 181.078 29.7515 180.844 29.7153C180.479 29.6589 180.196 29.572 179.892 29.4244C178.916 28.9481 178.251 27.9521 178.026 26.6217C177.956 26.2164 177.945 26.0586 177.945 25.5071C177.945 25.0902 177.951 24.9338 177.971 24.7615C178.049 24.1116 178.195 23.5919 178.437 23.0968C178.794 22.373 179.315 21.846 179.975 21.542C180.666 21.2235 181.549 21.1656 182.321 21.3871C183.312 21.6709 184.046 22.3701 184.36 23.3313L184.431 23.5455L185.094 23.5499C185.748 23.5528 185.757 23.5528 185.757 23.5238C185.757 23.4703 185.681 23.1416 185.632 22.9737C185.484 22.4859 185.225 21.9966 184.905 21.5985C184.766 21.4262 184.484 21.1468 184.306 21.0078C183.646 20.4867 182.865 20.1755 181.956 20.0698C181.773 20.0495 181.202 20.0321 181.055 20.0437Z" fill="white"/>
<path d="M53.1787 25.4999V30.791H53.7964H54.4141V26.7159C54.4141 22.8305 54.4155 22.6409 54.4402 22.6409C54.4606 22.6409 54.8109 23.466 56.1581 26.6797L57.8513 30.7186H58.4109H58.9704L60.6055 26.8129C61.5037 24.6661 62.2652 22.8479 62.2958 22.774C62.3394 22.6727 62.3597 22.6409 62.3801 22.6409C62.4077 22.6409 62.4077 22.7364 62.4077 26.7159V30.791H63.0254H63.643V25.4999V20.2088H62.8742H62.1068L61.9658 20.5447C61.8888 20.73 61.0647 22.7161 60.1346 24.9571C58.5722 28.718 58.4399 29.0321 58.4094 29.0321C58.3774 29.0321 58.235 28.6934 56.5433 24.6198L54.712 20.2088H53.9461H53.1787V25.4999Z" fill="white"/>
<path d="M68.7613 20.2407C68.6305 20.5881 64.8735 30.7476 64.8677 30.7664C64.8618 30.7896 64.8996 30.791 65.5566 30.7881L66.2513 30.7838L66.7818 29.2753L67.3137 27.7655L69.4269 27.7698L71.5416 27.7727L72.0721 29.2811L72.604 30.791H73.2987C73.6795 30.791 73.992 30.7881 73.992 30.7838C73.992 30.778 70.3455 20.9211 70.1187 20.3131L70.0795 20.2088H69.4269H68.7744L68.7613 20.2407ZM70.2888 24.2043C70.751 25.5144 71.1332 26.5972 71.1376 26.6103C71.1448 26.6349 71.0576 26.6363 69.4284 26.6363C67.9648 26.6363 67.7119 26.6334 67.7163 26.616C67.7192 26.6045 68.1 25.5202 68.5636 24.2057C69.206 22.3817 69.4124 21.8157 69.4284 21.8186C69.4429 21.8215 69.7191 22.5873 70.2888 24.2043Z" fill="white"/>
<path d="M75.2119 25.4999V30.791H75.8732H76.5345V28.6992V26.6074H77.8047H79.075L80.2115 28.6992L81.3495 30.791H82.1256H82.9017L82.8509 30.6998C82.8232 30.6506 82.2724 29.6691 81.6286 28.5182C80.9847 27.3674 80.4557 26.4206 80.4542 26.4148C80.4528 26.4076 80.5196 26.3772 80.6039 26.3453C81.6286 25.9588 82.3146 25.1366 82.5137 24.0537C82.7404 22.8334 82.3727 21.6753 81.5414 20.979C81.0123 20.536 80.3293 20.2827 79.5066 20.2233C79.402 20.2161 78.4035 20.2088 77.2655 20.2088H75.2119V25.4999ZM79.2668 21.3959C80.0938 21.4596 80.6839 21.807 80.992 22.415C81.2856 22.9955 81.2812 23.8742 80.9818 24.4649C80.7536 24.9136 80.3409 25.2249 79.7988 25.3566C79.4819 25.4333 79.434 25.4348 77.9283 25.4348H76.5345V23.4081V21.3814H77.8033C78.5329 21.3814 79.1535 21.3872 79.2668 21.3959Z" fill="white"/>
<path d="M84.2383 25.4999V30.791H84.9068H85.5754V28.9395V27.088L86.1451 26.464C86.5942 25.9704 86.7177 25.843 86.7323 25.8575C86.741 25.8676 87.6363 26.9823 88.7219 28.3329L90.6942 30.791H91.5371C92.0008 30.791 92.3772 30.7852 92.3743 30.7794C92.3728 30.7722 91.3075 29.4491 90.0082 27.8393C88.7089 26.2295 87.6464 24.9064 87.6464 24.8992C87.6464 24.8934 88.5882 23.8757 89.7408 22.6394C90.8918 21.4017 91.8729 20.3493 91.9179 20.2986L92.0022 20.2088H91.168H90.3323L87.9865 22.7929C86.2003 24.7602 85.6335 25.3769 85.6088 25.3769H85.5754L85.5725 22.7958L85.5681 20.2161L84.9039 20.2117L84.2383 20.2088V25.4999Z" fill="white"/>
<path d="M93.5107 25.4999V30.791H96.8026H100.095V30.1975V29.604H97.4712H94.8479V27.7872V25.9704H97.3331H99.8184V25.3841V24.7978H97.3331H94.8479V23.0969V21.3959H97.4712H100.095V20.8024V20.2088H96.8026H93.5107V25.4999Z" fill="white"/>
<path d="M101.17 20.8024V21.3959L102.846 21.3988L104.52 21.4031L104.524 26.0964L104.527 30.791H105.189H105.85V26.0935V21.3959H107.521H109.193V20.8024V20.2088H105.181H101.17V20.8024Z" fill="white"/>
<path d="M110.598 20.219C110.592 20.2233 110.588 22.6047 110.588 25.5101V30.791H111.256H111.925V25.4999V20.2088H111.267C110.903 20.2088 110.602 20.2132 110.598 20.219Z" fill="white"/>
<path d="M113.984 20.219C113.978 20.2233 113.974 22.6047 113.974 25.5101V30.791H114.635H115.296V26.6493V22.5091L115.328 22.5135C115.351 22.5164 116.075 23.5369 118.263 26.6508L121.165 30.7838L121.813 30.7881L122.461 30.791V25.4999V20.2088H121.807H121.153V24.365V28.5197L121.114 28.5153C121.081 28.511 120.688 27.9566 118.174 24.3635L115.271 20.2161L114.632 20.2117C114.28 20.2103 113.988 20.2132 113.984 20.219Z" fill="white"/>
<path d="M141.315 20.2479C141.308 20.2711 140.427 22.6481 139.359 25.5332C138.29 28.4183 137.417 30.7809 137.417 30.7838C137.417 30.7881 137.729 30.791 138.112 30.791H138.805L139.337 29.2811L139.867 27.7727L141.982 27.7698L144.095 27.7655L144.627 29.2753L145.159 30.7838L145.854 30.7881L146.547 30.791L146.538 30.7592C146.534 30.7403 145.655 28.3604 144.584 25.471L142.639 20.2161L141.983 20.2117L141.329 20.2088L141.315 20.2479ZM142.85 24.2159C143.315 25.5361 143.696 26.6218 143.696 26.6262C143.696 26.632 142.924 26.6363 141.979 26.6363C140.612 26.6363 140.264 26.632 140.27 26.6175C140.273 26.6088 140.654 25.5289 141.116 24.2188C141.577 22.9087 141.957 21.8331 141.962 21.8258C141.965 21.8201 141.976 21.8157 141.985 21.8157C141.995 21.8157 142.354 22.8102 142.85 24.2159Z" fill="white"/>
<path d="M158.128 25.4999V30.791H161.413H164.697V30.1975V29.604H162.074H159.451V27.7872V25.9704H161.943H164.436V25.3841V24.7978H161.943H159.451V23.0969V21.3959H162.074H164.697V20.8024V20.2088H161.413H158.128V25.4999Z" fill="white"/>
<path d="M166.441 25.4999V30.791H167.103H167.764V26.6493V22.5091L167.794 22.5135C167.816 22.5164 168.627 23.66 170.727 26.6508L173.63 30.7838L174.279 30.7881L174.929 30.791L174.926 25.5043L174.922 20.2161L174.272 20.2117L173.621 20.2088V24.3635V28.5182L173.582 28.5168C173.544 28.5168 173.29 28.1578 170.636 24.3621L167.732 20.2088H167.087H166.441V25.4999Z" fill="white"/>
<path d="M186.124 20.2277C186.127 20.2378 186.967 21.5841 187.99 23.2199C189.014 24.8557 189.858 26.2093 189.867 26.2266C189.88 26.2498 189.884 26.8245 189.884 28.524V30.791H190.545H191.207V28.5139V26.2382L193.076 23.2489C194.103 21.6044 194.951 20.2479 194.958 20.2334C194.971 20.2103 194.932 20.2088 194.218 20.2088H193.465L192.019 22.5786C190.817 24.5503 190.567 24.9498 190.541 24.9498C190.516 24.9498 190.266 24.5503 189.066 22.583L187.623 20.2161L186.87 20.2117C186.265 20.2088 186.118 20.2117 186.124 20.2277Z" fill="white"/>
<path d="M135.605 46.06C134.981 46.06 134.421 45.924 133.925 45.652C133.437 45.372 133.053 44.992 132.773 44.512C132.493 44.024 132.353 43.468 132.353 42.844C132.353 42.212 132.493 41.656 132.773 41.176C133.053 40.696 133.437 40.32 133.925 40.048C134.421 39.776 134.981 39.64 135.605 39.64C136.141 39.64 136.625 39.744 137.057 39.952C137.489 40.16 137.829 40.472 138.077 40.888L137.441 41.32C137.225 41 136.957 40.764 136.637 40.612C136.317 40.46 135.969 40.384 135.593 40.384C135.145 40.384 134.741 40.488 134.381 40.696C134.021 40.896 133.737 41.18 133.529 41.548C133.321 41.916 133.217 42.348 133.217 42.844C133.217 43.34 133.321 43.772 133.529 44.14C133.737 44.508 134.021 44.796 134.381 45.004C134.741 45.204 135.145 45.304 135.593 45.304C135.969 45.304 136.317 45.228 136.637 45.076C136.957 44.924 137.225 44.692 137.441 44.38L138.077 44.812C137.829 45.22 137.489 45.532 137.057 45.748C136.625 45.956 136.141 46.06 135.605 46.06ZM139.751 46V39.7H140.567V41.416L140.483 41.116C140.659 40.636 140.955 40.272 141.371 40.024C141.787 39.768 142.303 39.64 142.919 39.64V40.468C142.887 40.468 142.855 40.468 142.823 40.468C142.791 40.46 142.759 40.456 142.727 40.456C142.062 40.456 141.543 40.66 141.167 41.068C140.791 41.468 140.603 42.04 140.603 42.784V46H139.751ZM147.091 46.06C146.435 46.06 145.859 45.924 145.363 45.652C144.867 45.372 144.479 44.992 144.199 44.512C143.919 44.024 143.779 43.468 143.779 42.844C143.779 42.22 143.911 41.668 144.175 41.188C144.447 40.708 144.815 40.332 145.279 40.06C145.751 39.78 146.279 39.64 146.863 39.64C147.455 39.64 147.979 39.776 148.435 40.048C148.899 40.312 149.263 40.688 149.527 41.176C149.791 41.656 149.923 42.212 149.923 42.844C149.923 42.884 149.919 42.928 149.911 42.976C149.911 43.016 149.911 43.06 149.911 43.108H144.427V42.472H149.455L149.119 42.724C149.119 42.268 149.019 41.864 148.819 41.512C148.627 41.152 148.363 40.872 148.027 40.672C147.691 40.472 147.303 40.372 146.863 40.372C146.431 40.372 146.043 40.472 145.699 40.672C145.355 40.872 145.087 41.152 144.895 41.512C144.703 41.872 144.607 42.284 144.607 42.748V42.88C144.607 43.36 144.711 43.784 144.919 44.152C145.135 44.512 145.431 44.796 145.807 45.004C146.191 45.204 146.627 45.304 147.115 45.304C147.499 45.304 147.855 45.236 148.183 45.1C148.519 44.964 148.807 44.756 149.047 44.476L149.527 45.028C149.247 45.364 148.895 45.62 148.471 45.796C148.055 45.972 147.595 46.06 147.091 46.06ZM155.429 46V44.608L155.393 44.38V42.052C155.393 41.516 155.241 41.104 154.937 40.816C154.641 40.528 154.197 40.384 153.605 40.384C153.197 40.384 152.809 40.452 152.441 40.588C152.073 40.724 151.761 40.904 151.505 41.128L151.121 40.492C151.441 40.22 151.825 40.012 152.273 39.868C152.721 39.716 153.193 39.64 153.689 39.64C154.505 39.64 155.133 39.844 155.573 40.252C156.021 40.652 156.245 41.264 156.245 42.088V46H155.429ZM153.257 46.06C152.785 46.06 152.373 45.984 152.021 45.832C151.677 45.672 151.413 45.456 151.229 45.184C151.045 44.904 150.953 44.584 150.953 44.224C150.953 43.896 151.029 43.6 151.181 43.336C151.341 43.064 151.597 42.848 151.949 42.688C152.309 42.52 152.789 42.436 153.389 42.436H155.561V43.072H153.413C152.805 43.072 152.381 43.18 152.141 43.396C151.909 43.612 151.793 43.88 151.793 44.2C151.793 44.56 151.933 44.848 152.213 45.064C152.493 45.28 152.885 45.388 153.389 45.388C153.869 45.388 154.281 45.28 154.625 45.064C154.977 44.84 155.233 44.52 155.393 44.104L155.585 44.692C155.425 45.108 155.145 45.44 154.745 45.688C154.353 45.936 153.857 46.06 153.257 46.06ZM160.551 46.06C159.959 46.06 159.503 45.9 159.183 45.58C158.863 45.26 158.703 44.808 158.703 44.224V38.308H159.555V44.176C159.555 44.544 159.647 44.828 159.831 45.028C160.023 45.228 160.295 45.328 160.647 45.328C161.023 45.328 161.335 45.22 161.583 45.004L161.883 45.616C161.715 45.768 161.511 45.88 161.271 45.952C161.039 46.024 160.799 46.06 160.551 46.06ZM157.575 40.408V39.7H161.475V40.408H157.575ZM165.887 46.06C165.231 46.06 164.655 45.924 164.159 45.652C163.663 45.372 163.275 44.992 162.995 44.512C162.715 44.024 162.575 43.468 162.575 42.844C162.575 42.22 162.707 41.668 162.971 41.188C163.243 40.708 163.611 40.332 164.075 40.06C164.547 39.78 165.075 39.64 165.659 39.64C166.251 39.64 166.775 39.776 167.231 40.048C167.695 40.312 168.059 40.688 168.323 41.176C168.587 41.656 168.719 42.212 168.719 42.844C168.719 42.884 168.715 42.928 168.707 42.976C168.707 43.016 168.707 43.06 168.707 43.108H163.223V42.472H168.251L167.915 42.724C167.915 42.268 167.815 41.864 167.615 41.512C167.423 41.152 167.159 40.872 166.823 40.672C166.487 40.472 166.099 40.372 165.659 40.372C165.227 40.372 164.839 40.472 164.495 40.672C164.151 40.872 163.883 41.152 163.691 41.512C163.499 41.872 163.403 42.284 163.403 42.748V42.88C163.403 43.36 163.507 43.784 163.715 44.152C163.931 44.512 164.227 44.796 164.603 45.004C164.987 45.204 165.423 45.304 165.911 45.304C166.295 45.304 166.651 45.236 166.979 45.1C167.315 44.964 167.603 44.756 167.843 44.476L168.323 45.028C168.043 45.364 167.691 45.62 167.267 45.796C166.851 45.972 166.391 46.06 165.887 46.06ZM172.962 46.06C172.362 46.06 171.822 45.924 171.342 45.652C170.87 45.38 170.498 45.004 170.226 44.524C169.954 44.036 169.818 43.476 169.818 42.844C169.818 42.204 169.954 41.644 170.226 41.164C170.498 40.684 170.87 40.312 171.342 40.048C171.822 39.776 172.362 39.64 172.962 39.64C173.514 39.64 174.006 39.764 174.438 40.012C174.878 40.26 175.226 40.624 175.482 41.104C175.746 41.576 175.878 42.156 175.878 42.844C175.878 43.524 175.75 44.104 175.494 44.584C175.238 45.064 174.89 45.432 174.45 45.688C174.018 45.936 173.522 46.06 172.962 46.06ZM173.022 45.304C173.47 45.304 173.87 45.204 174.222 45.004C174.582 44.796 174.862 44.508 175.062 44.14C175.27 43.764 175.374 43.332 175.374 42.844C175.374 42.348 175.27 41.916 175.062 41.548C174.862 41.18 174.582 40.896 174.222 40.696C173.87 40.488 173.47 40.384 173.022 40.384C172.582 40.384 172.186 40.488 171.834 40.696C171.482 40.896 171.202 41.18 170.994 41.548C170.786 41.916 170.682 42.348 170.682 42.844C170.682 43.332 170.786 43.764 170.994 44.14C171.202 44.508 171.482 44.796 171.834 45.004C172.186 45.204 172.582 45.304 173.022 45.304ZM175.398 46V44.104L175.482 42.832L175.362 41.56V37.096H176.214V46H175.398ZM184.979 46.06C184.427 46.06 183.931 45.936 183.491 45.688C183.051 45.432 182.703 45.064 182.447 44.584C182.191 44.104 182.063 43.524 182.063 42.844C182.063 42.156 182.191 41.576 182.447 41.104C182.711 40.624 183.063 40.26 183.503 40.012C183.943 39.764 184.435 39.64 184.979 39.64C185.579 39.64 186.115 39.776 186.587 40.048C187.067 40.312 187.443 40.684 187.715 41.164C187.987 41.644 188.123 42.204 188.123 42.844C188.123 43.476 187.987 44.036 187.715 44.524C187.443 45.004 187.067 45.38 186.587 45.652C186.115 45.924 185.579 46.06 184.979 46.06ZM181.727 46V37.096H182.579V41.56L182.459 42.832L182.543 44.104V46H181.727ZM184.919 45.304C185.367 45.304 185.767 45.204 186.119 45.004C186.471 44.796 186.751 44.508 186.959 44.14C187.167 43.764 187.271 43.332 187.271 42.844C187.271 42.348 187.167 41.916 186.959 41.548C186.751 41.18 186.471 40.896 186.119 40.696C185.767 40.488 185.367 40.384 184.919 40.384C184.471 40.384 184.067 40.488 183.707 40.696C183.355 40.896 183.075 41.18 182.867 41.548C182.667 41.916 182.567 42.348 182.567 42.844C182.567 43.332 182.667 43.764 182.867 44.14C183.075 44.508 183.355 44.796 183.707 45.004C184.067 45.204 184.471 45.304 184.919 45.304ZM189.732 48.388C189.436 48.388 189.152 48.34 188.88 48.244C188.616 48.148 188.388 48.004 188.196 47.812L188.592 47.176C188.752 47.328 188.924 47.444 189.108 47.524C189.3 47.612 189.512 47.656 189.744 47.656C190.024 47.656 190.264 47.576 190.464 47.416C190.672 47.264 190.868 46.992 191.052 46.6L191.46 45.676L191.556 45.544L194.148 39.7H194.988L191.832 46.756C191.656 47.164 191.46 47.488 191.244 47.728C191.036 47.968 190.808 48.136 190.56 48.232C190.312 48.336 190.036 48.388 189.732 48.388ZM191.412 46.18L188.508 39.7H189.396L191.964 45.484L191.412 46.18Z" fill="white"/>
</svg>
