<svg width="114" height="114" viewBox="0 0 114 114" fill="none" xmlns="http://www.w3.org/2000/svg">
<g filter="url(#filter0_d_50_1854)">
<path d="M36.1825 52.6998L53.3824 14C56.8036 14 60.0848 15.3591 62.504 17.7783C64.9232 20.1975 66.2823 23.4786 66.2823 26.8999V44.0998H90.6201C91.8667 44.0857 93.1015 44.3428 94.2389 44.8532C95.3762 45.3637 96.389 46.1154 97.2071 47.0561C98.0251 47.9968 98.6289 49.1042 98.9764 50.3014C99.324 51.4987 99.4072 52.7572 99.2201 53.9897L93.2861 92.6895C92.9751 94.7402 91.9335 96.6094 90.3531 97.9527C88.7728 99.296 86.7602 100.023 84.6862 99.9995H36.1825M36.1825 52.6998V99.9995M36.1825 52.6998H23.2826C21.0017 52.6998 18.8143 53.6058 17.2015 55.2186C15.5887 56.8314 14.6826 59.0189 14.6826 61.2997V91.3995C14.6826 93.6804 15.5887 95.8678 17.2015 97.4806C18.8143 99.0934 21.0017 99.9995 23.2826 99.9995H36.1825" stroke="white" stroke-width="2" stroke-linecap="round" stroke-linejoin="round"/>
</g>
<g filter="url(#filter1_d_50_1854)">
<path d="M36.1825 52.6998L53.3824 14C56.8036 14 60.0848 15.3591 62.504 17.7783C64.9232 20.1975 66.2823 23.4786 66.2823 26.8999V44.0998H90.6201C91.8667 44.0857 93.1015 44.3428 94.2389 44.8532C95.3762 45.3637 96.389 46.1154 97.2071 47.0561C98.0251 47.9968 98.6289 49.1042 98.9764 50.3014C99.324 51.4987 99.4072 52.7572 99.2201 53.9897L93.2861 92.6895C92.9751 94.7402 91.9335 96.6094 90.3531 97.9527C88.7728 99.296 86.7602 100.023 84.6862 99.9995H36.1825M36.1825 52.6998V99.9995M36.1825 52.6998H23.2826C21.0017 52.6998 18.8143 53.6058 17.2015 55.2186C15.5887 56.8314 14.6826 59.0189 14.6826 61.2997V91.3995C14.6826 93.6804 15.5887 95.8678 17.2015 97.4806C18.8143 99.0934 21.0017 99.9995 23.2826 99.9995H36.1825" stroke="white" stroke-width="2" stroke-linecap="round" stroke-linejoin="round"/>
</g>
<defs>
<filter id="filter0_d_50_1854" x="0.682617" y="0" width="112.635" height="114" filterUnits="userSpaceOnUse" color-interpolation-filters="sRGB">
<feFlood flood-opacity="0" result="BackgroundImageFix"/>
<feColorMatrix in="SourceAlpha" type="matrix" values="0 0 0 0 0 0 0 0 0 0 0 0 0 0 0 0 0 0 127 0" result="hardAlpha"/>
<feOffset/>
<feGaussianBlur stdDeviation="6.5"/>
<feColorMatrix type="matrix" values="0 0 0 0 0 0 0 0 0 0.858824 0 0 0 0 0.396078 0 0 0 1 0"/>
<feBlend mode="normal" in2="BackgroundImageFix" result="effect1_dropShadow_50_1854"/>
<feBlend mode="normal" in="SourceGraphic" in2="effect1_dropShadow_50_1854" result="shape"/>
</filter>
<filter id="filter1_d_50_1854" x="0.682617" y="0" width="112.635" height="114" filterUnits="userSpaceOnUse" color-interpolation-filters="sRGB">
<feFlood flood-opacity="0" result="BackgroundImageFix"/>
<feColorMatrix in="SourceAlpha" type="matrix" values="0 0 0 0 0 0 0 0 0 0 0 0 0 0 0 0 0 0 127 0" result="hardAlpha"/>
<feOffset/>
<feGaussianBlur stdDeviation="6.5"/>
<feColorMatrix type="matrix" values="0 0 0 0 0 0 0 0 0 0.858824 0 0 0 0 0.396078 0 0 0 1 0"/>
<feBlend mode="normal" in2="BackgroundImageFix" result="effect1_dropShadow_50_1854"/>
<feBlend mode="normal" in="SourceGraphic" in2="effect1_dropShadow_50_1854" result="shape"/>
</filter>
</defs>
</svg>
