<svg width="218" height="23" viewBox="0 0 218 23" fill="none" xmlns="http://www.w3.org/2000/svg">
<rect y="16" width="3" height="7" fill="#99CBF0"/>
<rect x="5" y="11" width="3" height="12" fill="#99CBF0"/>
<rect x="10" y="4" width="3" height="19" fill="#99CBF0"/>
<rect x="15" y="11" width="3" height="12" fill="#99CBF0"/>
<rect x="30" y="5" width="3" height="18" fill="#99CBF0"/>
<rect x="45" y="6" width="3" height="17" fill="#99CBF0"/>
<rect x="60" y="8" width="3" height="15" fill="#99CBF0"/>
<rect x="85" y="4" width="3" height="19" fill="#99CBF0"/>
<rect x="20" y="16" width="3" height="7" fill="#99CBF0"/>
<rect x="35" width="3" height="23" fill="#99CBF0"/>
<rect x="50" y="6" width="3" height="17" fill="#99CBF0"/>
<rect x="65" y="8" width="3" height="15" fill="#99CBF0"/>
<rect x="75" y="4" width="3" height="19" fill="#99CBF0"/>
<rect x="90" y="6" width="3" height="17" fill="#99CBF0"/>
<rect x="25" y="9" width="3" height="14" fill="#99CBF0"/>
<rect x="40" y="4" width="3" height="19" fill="#99CBF0"/>
<rect x="55" y="6" width="3" height="17" fill="#99CBF0"/>
<rect x="70" y="8" width="3" height="15" fill="#99CBF0"/>
<rect x="80" y="4" width="3" height="19" fill="#99CBF0"/>
<rect x="95" y="6" width="3" height="17" fill="#99CBF0"/>
<rect x="100" y="11" width="3" height="12" fill="#99CBF0"/>
<rect x="105" y="16" width="3" height="7" fill="#99CBF0"/>
<rect x="110" y="11" width="3" height="12" fill="#99CBF0"/>
<rect x="115" y="9" width="3" height="14" fill="#99CBF0"/>
<rect x="120" y="9" width="3" height="14" fill="#99CBF0"/>
<rect x="125" y="4" width="3" height="19" fill="#99CBF0"/>
<rect x="130" y="4" width="3" height="19" fill="#99CBF0"/>
<rect x="135" width="3" height="23" fill="#99CBF0"/>
<rect x="140" y="7" width="3" height="16" fill="#99CBF0"/>
<rect x="145" y="7" width="3" height="16" fill="#99CBF0"/>
<rect x="150" y="7" width="3" height="16" fill="#99CBF0"/>
<rect x="155" y="12" width="3" height="11" fill="#99CBF0"/>
<rect x="160" y="12" width="3" height="11" fill="#99CBF0"/>
<rect x="165" y="16" width="3" height="7" fill="#99CBF0"/>
<rect x="170" y="16" width="3" height="7" fill="#99CBF0"/>
<rect x="175" y="16" width="3" height="7" fill="#99CBF0"/>
<rect x="180" y="11" width="3" height="12" fill="#99CBF0"/>
<rect x="185" y="11" width="3" height="12" fill="#99CBF0"/>
<rect x="190" y="11" width="3" height="12" fill="#99CBF0"/>
<rect x="195" y="5" width="3" height="18" fill="#99CBF0"/>
<rect x="200" y="12" width="3" height="11" fill="#99CBF0"/>
<rect x="205" y="12" width="3" height="11" fill="#99CBF0"/>
<rect x="210" y="15" width="3" height="8" fill="#99CBF0"/>
<rect x="215" y="17" width="3" height="6" fill="#99CBF0"/>
</svg>
